Coordinates
version=1
nRows=20
nColumns=34
inDegrees=yes

Units are S.I. units (second, meters, Newtons, ...)
If the header above contains a line with 'inDegrees', this indicates whether rotational values are in degrees (yes) or radians (no).

endheader
time	pelvis_tilt	pelvis_list	pelvis_rotation	pelvis_tx	pelvis_ty	pelvis_tz	hip_flexion_r	hip_adduction_r	hip_rotation_r	knee_angle_r	ankle_angle_r	subtalar_angle_r	mtp_angle_r	hip_flexion_l	hip_adduction_l	hip_rotation_l	knee_angle_l	ankle_angle_l	subtalar_angle_l	mtp_angle_l	lumbar_extension	lumbar_bending	lumbar_rotation	arm_flex_r	arm_add_r	arm_rot_r	elbow_flex_r	pro_sup_r	arm_flex_l	arm_add_l	arm_rot_l	elbow_flex_l	pro_sup_l
      2.68333330	      0.34350733	     -3.14872674	    -29.86291320	      1.20086980	      0.98591714	      0.33747559	     16.23737353	     -4.09461705	     -6.98916736	     30.85895315	      3.76164058	     -7.87382781	      0.00000000	      7.66824592	      3.62494371	      1.14151170	      6.04162906	      3.29757384	     -9.11368808	      0.00000000	    -10.59066127	      0.58443705	      6.44376488	     10.30411093	    -10.63927035	     13.42942831	     18.90047909	    119.74817918	      9.19213156	    -17.06709803	     11.12009783	     30.58321042	    116.98260076
      2.70000000	      0.27431578	     -2.89023861	    -29.95396297	      1.20087543	      0.98529910	      0.33676922	     15.66778303	     -4.14932547	     -6.86016868	     29.04039047	      3.86470611	     -7.70652836	      0.00000000	      7.89201245	      3.87612776	      1.00892431	      6.05025050	      3.19450347	     -9.13120954	      0.00000000	    -10.33757633	      0.61691155	      6.57725351	      9.96435345	    -10.56490484	     13.27926884	     18.65921694	    119.74054561	      9.72737274	    -17.47193266	     11.12778917	     31.14674271	    116.99934744
      2.71666670	      0.58498073	     -3.32674760	    -29.92793957	      1.20091178	      0.98604463	      0.33622287	     13.97291785	     -3.65380128	     -6.72880888	     26.53220304	      3.76393335	     -7.57484655	      0.00000000	      7.25890062	      3.65574079	      0.94273572	      5.87495942	      3.42138702	     -8.94210987	      0.00000000	    -10.88713024	      1.14212074	      6.59358314	      9.89082734	    -10.41496864	     12.15255534	     18.35403961	    119.71882641	     10.19196228	    -18.03400343	     12.04167374	     32.15664656	    117.19046807
      2.73333330	      0.49611471	     -2.97189862	    -29.88802233	      1.20047387	      0.98527087	      0.33545960	     13.49861685	     -3.74770479	     -6.49606882	     24.75397144	      4.09242536	     -7.38796704	      0.00000000	      7.57821838	      3.97024528	      0.90430667	      5.84750061	      3.21570587	     -8.85567060	      0.00000000	    -10.55427449	      1.03092911	      6.65069737	      9.55312568	    -10.30712288	     12.02477886	     18.18906735	    119.72617762	     10.85761667	    -18.31903139	     12.08820958	     32.48103137	    117.20905461
      2.75000000	      0.84786648	     -3.25174632	    -29.52551144	      1.20048973	      0.98583730	      0.33479395	     11.80979944	     -3.46333849	     -6.62328080	     22.35448377	      4.59723142	     -6.81534197	      0.00000000	      6.94408905	      3.93200975	      1.09242992	      5.51501375	      3.15317960	     -8.47320182	      0.00000000	    -11.02357173	      1.30810792	      6.65453889	      9.12636189	    -10.06046751	     10.08416342	     18.23031185	    119.65268263	     11.91859856	    -18.84389242	     14.35266809	     32.56862253	    117.57458266
      2.76666670	      0.69670502	     -2.88324691	    -29.52150489	      1.19961287	      0.98485436	      0.33410186	     11.44354964	     -3.48470739	     -6.20106786	     20.70461074	      5.12954834	     -6.42644159	      0.00000000	      7.37469125	      4.21245118	      1.12804835	      5.52711267	      3.13133439	     -8.49041473	      0.00000000	    -10.68793819	      1.14801583	      6.76165343	      8.81665717	     -9.96494111	      9.96023414	     18.04569836	    119.66996032	     12.43329601	    -19.00050225	     14.46674681	     32.91275781	    117.59237595
      2.78333330	      0.80011269	     -3.28929812	    -29.40841360	      1.19900372	      0.98533290	      0.33320111	     10.55363148	     -3.04909733	     -6.25635935	     19.47986645	      5.67453699	     -5.30084254	      0.00000000	      7.01192437	      3.92552649	      1.29040415	      5.30235431	      2.98755108	     -8.50145057	      0.00000000	    -11.02060649	      1.70057316	      7.07717226	      8.46845720	     -9.91534923	      8.41286212	     18.01779245	    119.74817918	     13.42503539	    -19.12776107	     16.75980324	     32.75225302	    117.85949529
      2.80000000	      0.60929849	     -3.40604092	    -29.38306463	      1.19828682	      0.98510142	      0.33202262	     10.50489946	     -2.71814542	     -5.82294810	     18.99280883	      6.01746774	     -4.96719860	      0.00000000	      7.21787362	      3.76171824	      1.41009577	      5.28141823	      2.83339287	     -8.39068210	      0.00000000	    -10.94937534	      2.15213699	      7.24758597	      8.25539277	    -10.06882797	      8.27074800	     17.78905508	    119.74817918	     13.76494344	    -18.86760222	     16.89197834	     33.02728934	    117.86823692
      2.81666670	      0.53425264	     -3.53311142	    -29.25350802	      1.19766282	      0.98505769	      0.33113484	     10.49415765	     -2.45587606	     -5.49787180	     18.89049913	      6.24472010	     -4.73696869	      0.00000000	      7.27205657	      3.63573696	      1.38443120	      5.22204265	      2.81085650	     -8.40461633	      0.00000000	    -10.97285365	      2.51660455	      7.23198232	      8.15514923	    -10.24455013	      8.17609596	     17.62965571	    119.74650716	     14.07883796	    -18.57722436	     17.00345738	     33.23045931	    117.88313874
      2.83333330	      0.38743497	     -4.02752193	    -29.39829687	      1.19694541	      0.98532745	      0.33089162	     10.24052019	     -1.74611153	     -4.99774149	     18.50941109	      6.68666276	     -4.01435152	      0.00000000	      7.27148967	      3.07357877	      1.49126758	      5.37240673	      3.03253294	     -8.56950961	      0.00000000	    -11.08211031	      3.27177599	      7.66473533	      8.02967304	    -10.37290369	      7.74762131	     17.36006739	    119.74085380	     14.41491735	    -18.23408487	     17.48510077	     33.16604374	    117.95728253
      2.85000000	      0.44488390	     -4.09643306	    -29.21495303	      1.19630812	      0.98532108	      0.32996315	     10.26125886	     -1.64419502	     -4.73402564	     18.64705841	      6.81258976	     -3.85936097	      0.00000000	      7.28793507	      3.06697613	      1.55588744	      5.40987484	      2.93026863	     -8.48704167	      0.00000000	    -11.21775776	      3.53275093	      7.62739313	      7.98548959	    -10.59481573	      7.61559110	     17.28278658	    119.72899024	     14.60190066	    -17.89673470	     17.61573724	     33.29407463	    117.97786732
      2.86666670	      0.48170383	     -4.17617974	    -29.03170364	      1.19547148	      0.98529494	      0.32949846	     10.27265641	     -1.47188747	     -4.42036162	     18.73635682	      6.93968513	     -3.63374153	      0.00000000	      7.33392198	      3.01653863	      1.65919936	      5.49350564	      2.86947556	     -8.42030086	      0.00000000	    -11.37036412	      3.73700184	      7.63096702	      7.92780710	    -10.71384149	      7.46816400	     17.22337292	    119.71105119	     14.74031946	    -17.59193792	     17.74884877	     33.40466419	    118.00068814
      2.88333330	      0.54142113	     -4.24275253	    -28.90871561	      1.19464470	      0.98529613	      0.32921252	     10.26118357	     -1.31874411	     -4.12304663	     18.80155984	      6.98080856	     -3.37568608	      0.00000000	      7.38068363	      2.97958038	      1.76321275	      5.63903685	      2.86798887	     -8.39913772	      0.00000000	    -11.50835587	      3.91109593	      7.62342650	      7.89135612	    -10.83488532	      7.29094512	     17.20688333	    119.68391401	     14.74104035	    -17.29606849	     17.89753059	     33.50166308	    118.02594788
      2.90000000	      0.58757845	     -4.21489090	    -28.85455237	      1.19357741	      0.98524594	      0.32986015	     10.29463014	     -1.20381647	     -4.08589932	     18.80191608	      6.97954011	     -3.33098992	      0.00000000	      7.40701429	      2.96661770	      1.76884745	      5.64737810	      2.86827395	     -8.40198012	      0.00000000	    -11.57806873	      3.85234698	      7.59431188	      7.86367486	    -10.83189594	      7.27356142	     17.20084147	    119.68097109	     14.66500588	    -17.15047883	     17.94476777	     33.51751274	    118.03215405
      2.91666670	      0.67866050	     -4.30488530	    -28.69299201	      1.19335311	      0.98534750	      0.32955912	     10.23561211	     -1.08911862	     -3.69248075	     18.93214791	      7.01591672	     -3.05093753	      0.00000000	      7.44457272	      2.95774790	      1.85542131	      5.92943694	      2.85153899	     -8.40195787	      0.00000000	    -11.69260883	      4.11040063	      7.50125495	      7.85243685	    -11.02817644	      7.08255021	     17.22845590	    119.64389805	     14.43600562	    -16.73094854	     18.12809350	     33.68297741	    118.06206869
      2.93333330	      0.75313540	     -4.40464666	    -28.66403890	      1.19311526	      0.98541347	      0.33021744	     10.13050071	     -0.92206415	     -3.52820092	     18.94513894	      7.14877591	     -2.91295873	      0.00000000	      7.47286692	      2.86867195	      1.92643486	      6.25249248	      2.99102058	     -8.50841635	      0.00000000	    -11.78420276	      4.27369187	      7.44253507	      7.84134154	    -11.13051445	      6.81180148	     17.35094159	    119.59145025	     14.03074679	    -16.48391087	     18.30412100	     33.84857042	    118.09664473
      2.95000000	      0.76864726	     -4.59310908	    -28.50274676	      1.19259484	      0.98540505	      0.33120362	      9.90881286	     -0.60819707	     -3.46643348	     18.77895622	      7.36594925	     -2.74837792	      0.00000000	      7.60114726	      2.64129600	      1.97421397	      6.72622117	      3.38142096	     -8.81337393	      0.00000000	    -11.87745016	      4.49713775	      7.24610833	      7.81439772	    -11.09984578	      6.09186813	     17.76066951	    119.46253081	     13.51316555	    -16.40908530	     18.45771131	     34.37897523	    118.15283197
      2.96666670	      0.87203435	     -4.58467543	    -28.51138612	      1.19240088	      0.98554902	      0.33232654	      9.84755344	     -0.57536430	     -3.51077393	     18.85571484	      7.35225499	     -2.77058601	      0.00000000	      7.59116021	      2.63620356	      2.07704695	      6.94622784	      3.34783176	     -8.76281870	      0.00000000	    -11.89861213	      4.48707660	      7.26045879	      7.81095664	    -11.17489652	      5.94708957	     17.79517911	    119.44088688	     13.07262915	    -16.14658421	     18.55484778	     34.36528682	    118.16980915
      2.98333330	      0.97976073	     -4.58747352	    -28.51667989	      1.19227579	      0.98564305	      0.33336458	      9.71967428	     -0.53673212	     -3.51740462	     18.87665428	      7.41322438	     -2.78233529	      0.00000000	      7.61531586	      2.62145094	      2.12063999	      7.28569966	      3.44512974	     -8.82713684	      0.00000000	    -11.93733173	      4.51380809	      7.17289081	      7.87274979	    -11.27504560	      5.74543852	     17.88815230	    119.41082823	     12.52695368	    -15.87990016	     18.66258877	     34.36260775	    118.19029765
      3.00000000	      0.91218224	     -4.79215847	    -27.92439782	      1.19232330	      0.98559917	      0.33412549	      9.39550937	     -0.26406983	     -4.05204123	     18.50067026	      7.48866671	     -2.78375789	      0.00000000	      8.16192416	      2.37327061	      2.42252003	      8.38943090	      4.12839554	     -8.60058826	      0.00000000	    -11.93081157	      4.86935158	      6.49171594	      7.79556598	    -10.89871320	      2.33480109	     18.64510171	    119.24383080	     11.78811875	    -15.58106589	     17.88495375	     34.70260562	    118.27684397
